<?xml version="1.0" standalone="no"?>
<!DOCTYPE svg PUBLIC "-//W3C//DTD SVG 20010904//EN"
 "http://www.w3.org/TR/2001/REC-SVG-20010904/DTD/svg10.dtd">
<svg version="1.0" xmlns="http://www.w3.org/2000/svg"
 width="500.000000pt" height="500.000000pt" viewBox="0 0 500.000000 500.000000"
 preserveAspectRatio="xMidYMid meet">
<metadata>
Created by potrace 1.14, written by Peter Selinger 2001-2017
</metadata>
<g transform="translate(0.000000,500.000000) scale(0.100000,-0.100000)"
fill="#000000" stroke="none">
<path d="M0 2500 l0 -2500 2500 0 2500 0 0 2500 0 2500 -2500 0 -2500 0 0
-2500z m2611 1691 c56 -57 32 -155 -45 -181 -105 -34 -185 102 -107 181 24 24
38 29 76 29 38 0 52 -5 76 -29z m516 -12 c43 -16 82 -59 94 -103 8 -31 7 -48
-6 -82 -39 -102 -161 -130 -236 -55 -106 107 8 293 148 240z m-924 -153 c18
-7 50 -33 70 -57 21 -23 50 -48 66 -55 26 -11 32 -10 46 6 27 30 99 53 138 46
19 -4 52 -19 73 -34 35 -25 42 -27 64 -15 47 24 96 16 139 -22 21 -19 48 -35
59 -35 33 0 71 -18 96 -45 23 -24 25 -25 59 -10 118 49 247 -35 247 -159 0
-25 6 -38 20 -46 24 -13 52 -64 55 -101 1 -14 14 -42 28 -60 48 -64 54 -171
13 -234 -16 -25 -16 -28 2 -58 38 -63 35 -147 -8 -192 -20 -21 -21 -27 -10
-60 24 -74 -7 -176 -57 -183 -37 -6 -47 22 -24 67 26 50 26 67 1 114 -11 20
-20 39 -20 41 0 3 16 21 35 42 47 50 49 104 5 159 -35 43 -36 48 -14 66 32 26
46 71 42 126 -4 43 -11 60 -36 86 -26 26 -32 41 -32 74 0 34 -5 45 -27 62 -51
38 -52 40 -46 74 10 63 -45 127 -110 127 -13 0 -41 -11 -62 -26 -43 -29 -65
-28 -80 3 -22 44 -36 53 -86 53 -44 0 -50 3 -64 30 -28 55 -64 62 -119 25 -20
-14 -39 -25 -41 -25 -2 0 -22 18 -44 40 -34 35 -45 40 -85 40 -40 0 -50 -5
-85 -42 l-40 -41 -39 26 c-21 15 -48 27 -60 27 -15 0 -26 10 -36 35 -31 74
-121 94 -175 40 -21 -20 -27 -38 -31 -88 l-5 -62 -61 -5 c-88 -7 -97 -18 -66
-80 22 -45 24 -55 13 -89 -16 -55 -45 -87 -96 -107 -25 -9 -45 -23 -45 -30 0
-8 -16 -24 -35 -36 -37 -24 -75 -88 -75 -126 0 -30 23 -84 43 -101 24 -19 21
-51 -8 -81 -40 -42 -42 -87 -7 -139 26 -38 28 -48 20 -73 -11 -32 -7 -66 13
-115 12 -29 11 -35 -3 -49 -9 -9 -23 -14 -32 -11 -38 15 -74 116 -56 161 7 20
4 34 -17 71 -31 56 -29 125 6 174 l22 31 -22 31 c-50 71 -31 188 42 253 45 41
46 47 18 64 -11 7 -29 33 -40 57 -17 37 -18 51 -9 84 5 21 19 50 30 64 23 28
101 63 124 54 9 -4 29 7 47 24 18 16 51 35 74 41 38 10 44 16 55 51 32 109
143 165 243 123z m682 -357 c60 -17 107 -71 146 -170 l33 -87 58 6 c66 6 98
-9 123 -59 26 -49 16 -81 -31 -104 l-41 -20 26 -50 26 -49 3 -301 c4 -382 17
-355 -168 -355 -122 0 -130 1 -144 22 -9 12 -16 40 -16 60 l0 38 -112 -7
c-142 -10 -429 -10 -574 -1 l-111 7 -6 -46 c-7 -68 -19 -73 -169 -73 -124 0
-128 1 -143 24 -14 21 -16 65 -13 333 3 297 4 309 26 350 12 23 22 44 22 46 0
2 -18 12 -39 22 -47 21 -53 32 -40 77 19 68 56 91 136 86 l55 -3 36 89 c38 97
78 146 133 163 47 15 730 17 784 2z m-1532 -1483 c18 -7 43 -26 57 -41 21 -22
25 -36 25 -90 0 -57 -3 -67 -29 -94 -31 -32 -93 -51 -171 -51 l-45 0 0 -60 0
-60 35 0 c31 0 35 -3 35 -25 0 -25 -1 -25 -90 -25 -89 0 -90 0 -90 25 0 21 5
25 30 25 l30 0 0 180 0 180 -30 0 c-25 0 -30 4 -30 25 l0 25 120 0 c80 0 132
-5 153 -14z m477 -46 c0 -57 -1 -60 -25 -60 -22 0 -25 4 -25 35 l0 35 -95 0
-95 0 0 -80 0 -80 86 0 c83 0 85 -1 82 -22 -3 -21 -9 -23 -85 -26 l-83 -3 0
-74 0 -75 95 0 95 0 0 35 c0 31 3 35 25 35 24 0 25 -3 25 -60 l0 -60 -181 0
-180 0 3 23 c2 16 11 23 31 25 l27 3 0 179 0 179 -27 3 c-20 2 -29 9 -31 26
l-3 22 180 0 181 0 0 -60z m288 54 c17 -3 45 -18 63 -33 27 -23 33 -35 37 -82
5 -67 -14 -111 -56 -128 l-29 -12 39 -75 c32 -61 43 -74 64 -74 19 0 24 -5 24
-26 0 -23 -3 -25 -42 -22 -43 3 -43 4 -84 82 -48 92 -64 106 -116 106 l-38 0
0 -70 0 -70 30 0 c25 0 30 -4 30 -25 0 -25 -1 -25 -91 -25 -88 0 -90 1 -87 23
2 16 11 23 31 25 l27 3 0 179 0 179 -27 3 c-20 2 -29 9 -31 26 -3 22 -2 22
111 22 63 0 128 -3 145 -6z m522 -54 c0 -57 -1 -60 -25 -60 -22 0 -25 4 -25
35 l0 35 -90 0 -90 0 0 -80 0 -80 74 0 c77 0 97 -10 76 -35 -9 -11 -33 -15
-81 -15 l-69 0 0 -74 0 -75 38 -3 c29 -2 37 -7 37 -23 0 -18 -8 -20 -98 -23
-98 -3 -98 -3 -95 20 2 17 11 24 31 26 l27 3 0 179 0 179 -27 3 c-20 2 -29 9
-31 26 l-3 22 175 0 176 0 0 -60z m390 0 c0 -57 -1 -60 -25 -60 -22 0 -25 4
-25 35 l0 35 -100 0 -101 0 3 -77 3 -78 83 -3 c79 -3 83 -4 80 -25 -3 -20 -9
-22 -85 -25 l-83 -3 0 -74 0 -75 100 0 100 0 0 35 c0 31 3 35 25 35 24 0 25
-3 25 -60 l0 -60 -180 0 -180 0 0 25 c0 21 5 25 30 25 l30 0 0 180 0 180 -30
0 c-25 0 -30 4 -30 25 l0 25 180 0 180 0 0 -60z m323 49 c12 -6 32 -21 45 -32
l22 -20 0 31 c0 28 4 32 25 32 26 0 26 0 23 -77 -3 -70 -5 -78 -24 -81 -14 -2
-24 6 -35 29 -21 47 -60 72 -121 77 -43 3 -59 0 -88 -20 -100 -66 -105 -240
-10 -308 67 -48 194 -30 235 34 14 21 19 23 36 13 25 -15 24 -19 -8 -58 -76
-90 -251 -94 -329 -7 -103 112 -74 310 54 378 42 22 140 27 175 9z m567 -49
l0 -60 -30 0 c-28 0 -30 3 -30 35 l0 35 -60 0 -60 0 0 -179 0 -180 28 -3 c19
-2 28 -9 30 -25 3 -22 1 -23 -82 -23 -85 0 -86 0 -86 25 0 21 5 25 30 25 l30
0 0 180 0 180 -60 0 -60 0 0 -35 c0 -32 -2 -35 -30 -35 l-30 0 0 60 0 60 205
0 205 0 0 -60z m-2237 -591 c12 -6 32 -21 45 -32 l22 -20 0 31 c0 28 4 32 25
32 26 0 26 0 23 -77 -3 -70 -5 -78 -24 -81 -14 -2 -24 6 -35 29 -21 47 -60 72
-121 77 -43 3 -59 0 -88 -20 -100 -66 -105 -240 -10 -308 67 -48 194 -30 235
34 14 21 19 23 36 13 25 -15 24 -19 -8 -58 -76 -90 -251 -94 -329 -7 -103 112
-74 310 54 378 42 22 140 27 175 9z m327 -14 c0 -20 -5 -25 -25 -25 l-25 0 0
-180 0 -180 100 0 100 0 0 35 c0 31 3 35 25 35 24 0 25 -3 25 -60 l0 -60 -186
0 -185 0 3 23 c2 16 11 23 31 25 l27 3 0 179 0 179 -27 3 c-20 2 -29 9 -31 26
-3 21 -1 22 82 22 85 0 86 0 86 -25z m590 -35 c0 -57 -1 -60 -25 -60 -22 0
-25 4 -25 35 l0 35 -95 0 -95 0 0 -80 0 -80 86 0 c83 0 85 -1 82 -22 -3 -21
-9 -23 -85 -26 l-83 -3 0 -74 0 -75 95 0 95 0 0 35 c0 31 3 35 25 35 24 0 25
-3 25 -60 l0 -60 -175 0 -175 0 0 25 c0 20 5 25 25 25 l25 0 0 180 0 180 -25
0 c-20 0 -25 5 -25 25 l0 25 175 0 175 0 0 -60z m371 -145 c71 -184 79 -200
103 -203 20 -3 26 -9 26 -28 0 -23 -2 -24 -81 -24 -78 0 -80 1 -77 23 2 14 11
23 26 25 25 4 24 11 -4 80 l-13 32 -89 0 -88 0 -17 -47 c-22 -60 -22 -61 6
-65 14 -2 22 -10 22 -23 0 -18 -8 -20 -77 -23 -78 -3 -78 -3 -78 23 0 20 5 25
24 25 24 0 34 23 154 348 2 7 -4 12 -17 12 -16 0 -21 6 -21 25 0 25 1 26 62
23 l63 -3 76 -200z m405 28 c61 -95 113 -176 117 -180 4 -3 7 64 7 150 l0 157
-30 0 c-25 0 -30 4 -30 25 0 25 1 25 85 25 84 0 85 0 85 -25 0 -21 -5 -25 -30
-25 l-30 0 0 -206 0 -205 -32 3 c-29 3 -40 16 -140 172 -60 93 -110 172 -113
174 -3 3 -5 -63 -5 -146 l0 -151 28 -3 c19 -2 27 -9 27 -23 0 -18 -8 -20 -82
-23 -83 -3 -83 -3 -83 23 0 20 5 25 25 25 l25 0 0 180 0 180 -25 0 c-20 0 -25
5 -25 25 0 25 2 26 57 23 l58 -3 111 -172z m-1891 -575 l18 -43 19 43 c10 23
23 42 28 42 6 0 10 -25 10 -55 0 -30 -4 -55 -10 -55 -5 0 -10 15 -10 33 l-1
32 -14 -32 c-8 -18 -18 -33 -22 -33 -5 0 -15 15 -23 33 l-13 32 -4 -32 c-7
-54 -23 -37 -23 22 0 69 20 74 45 13z m186 15 l11 -28 14 28 c8 15 19 27 25
27 5 0 0 -18 -11 -40 -11 -21 -20 -46 -20 -55 0 -8 -4 -15 -10 -15 -5 0 -10
11 -10 25 0 15 -7 39 -15 55 -9 18 -11 30 -5 30 6 0 15 -12 21 -27z m199 -11
c0 -21 -6 -46 -13 -56 -15 -20 -48 -19 -55 2 -3 9 3 11 22 6 25 -6 26 -5 26
40 0 25 5 46 10 46 6 0 10 -17 10 -38z m132 1 l23 -38 3 38 c5 57 22 44 22
-18 0 -30 -4 -55 -10 -55 -5 0 -21 17 -35 37 l-25 38 0 -38 c0 -20 -4 -37 -10
-37 -5 0 -10 25 -10 55 0 30 4 55 9 55 5 0 20 -17 33 -37z m148 -18 c0 -30 -4
-55 -10 -55 -5 0 -10 25 -10 55 0 30 5 55 10 55 6 0 10 -25 10 -55z m158 3
c21 -55 20 -70 0 -50 -15 15 -58 16 -58 2 0 -5 -5 -10 -11 -10 -11 0 -7 21 17
78 7 17 17 32 23 32 5 0 18 -24 29 -52z m277 22 c0 -18 -6 -26 -22 -28 -17 -3
-23 -10 -23 -28 0 -13 -4 -24 -10 -24 -5 0 -10 25 -10 56 l0 55 33 -3 c27 -2
32 -7 32 -28z m159 -17 c19 -56 20 -71 4 -55 -16 16 -55 15 -61 0 -2 -7 -7
-10 -11 -6 -11 9 27 108 40 108 7 0 19 -21 28 -47z m173 31 c3 -9 1 -25 -6
-36 -8 -13 -8 -24 -1 -38 7 -13 7 -20 1 -20 -6 0 -15 9 -21 20 -6 11 -15 20
-20 20 -6 0 -10 -9 -10 -20 0 -11 -4 -20 -10 -20 -5 0 -10 25 -10 55 l0 55 35
0 c24 0 38 -5 42 -16z m181 4 c20 -20 15 -76 -7 -88 -41 -22 -91 2 -91 43 0
45 67 76 98 45z m119 -30 l9 -43 14 43 c7 23 19 42 25 42 7 0 17 -19 22 -42
l9 -43 13 43 c6 23 16 42 21 42 5 0 3 -21 -5 -47 -8 -27 -15 -51 -15 -55 0 -5
-6 -8 -14 -8 -8 0 -17 15 -20 35 -8 41 -21 38 -31 -5 -12 -53 -32 -33 -50 48
-4 18 -3 32 3 32 5 0 13 -19 19 -42z m271 -10 c21 -55 20 -70 0 -50 -15 15
-58 16 -58 2 0 -5 -5 -10 -11 -10 -11 0 -7 21 17 78 7 17 17 32 23 32 5 0 18
-24 29 -52z m-2112 -199 l20 -41 18 41 c11 22 23 41 28 41 4 0 7 -26 7 -57 -1
-50 -3 -53 -8 -23 l-7 35 -17 -32 c-10 -18 -20 -33 -22 -33 -2 0 -11 12 -19
28 l-15 27 -1 -27 c0 -16 -4 -28 -10 -28 -5 0 -10 25 -10 55 0 30 4 55 8 55 4
0 17 -19 28 -41z m187 15 l13 -25 12 25 c6 14 16 26 22 26 6 0 4 -12 -5 -30
-8 -16 -15 -40 -15 -55 0 -14 -4 -25 -10 -25 -5 0 -10 7 -10 15 0 9 -9 34 -20
55 -11 22 -16 40 -11 40 6 0 16 -12 24 -26z m195 -20 c-4 -57 -28 -79 -55 -51
-17 18 -17 18 10 12 26 -7 27 -6 27 39 0 26 5 46 11 46 6 0 9 -19 7 -46z m135
39 c-28 -5 -32 -42 -5 -44 16 -1 16 -2 0 -6 -26 -7 -22 -41 5 -46 16 -3 13 -5
-10 -6 l-33 -1 0 55 0 55 33 -1 c23 -1 26 -3 10 -6z m138 -34 l21 -42 18 42
c26 57 40 52 40 -14 0 -58 -20 -79 -21 -22 l0 32 -16 -32 c-9 -18 -19 -33 -23
-33 -4 0 -14 15 -23 33 l-16 32 0 -32 c-1 -57 -21 -36 -21 22 0 30 4 55 10 55
5 0 19 -19 31 -41z m184 21 c3 -11 10 -20 15 -20 5 0 12 9 15 20 3 11 11 20
16 20 12 0 11 -10 -6 -40 -8 -14 -14 -35 -15 -47 0 -13 -4 -23 -10 -23 -5 0
-10 10 -10 23 -1 12 -7 33 -15 47 -17 30 -18 40 -6 40 5 0 13 -9 16 -20z m270
-25 l10 -39 13 42 c16 52 31 50 47 -4 l11 -39 10 39 c5 22 14 41 21 43 7 3 5
-15 -6 -52 -18 -63 -37 -71 -47 -20 -3 19 -10 35 -14 35 -4 0 -11 -16 -14 -35
-10 -52 -31 -43 -48 20 -10 35 -12 55 -5 52 6 -2 15 -21 22 -42z m263 25 c5
-13 3 -13 -12 -1 -12 10 -20 11 -28 3 -12 -12 -2 -32 16 -32 8 0 19 -7 26 -15
10 -12 10 -18 0 -30 -14 -17 -56 -20 -65 -4 -11 16 3 23 19 10 16 -13 36 -7
36 10 0 6 -13 15 -30 20 -28 10 -40 36 -23 53 12 12 56 2 61 -14z m162 15 c0
-3 -11 -23 -25 -45 -14 -22 -25 -42 -25 -44 0 -3 12 -7 28 -9 22 -3 20 -4 -10
-6 -44 -1 -47 10 -18 54 25 38 25 43 -2 48 -14 3 -9 5 15 6 20 0 37 -1 37 -4z
m103 -21 l13 -25 12 25 c6 14 16 26 22 26 6 0 4 -12 -5 -30 -8 -16 -15 -40
-15 -55 0 -14 -4 -25 -10 -25 -5 0 -10 7 -10 15 0 9 -9 34 -20 55 -11 22 -16
40 -11 40 6 0 16 -12 24 -26z m202 15 c11 -16 -3 -23 -19 -10 -17 14 -40 6
-30 -10 3 -6 17 -14 31 -20 18 -6 24 -15 21 -32 -3 -24 -43 -36 -61 -18 -15
15 0 26 17 12 10 -8 16 -9 21 -1 8 13 -3 30 -20 30 -21 0 -37 34 -23 48 15 15
55 16 63 1z m153 4 c-14 -3 -18 -15 -18 -54 0 -27 -4 -49 -10 -49 -5 0 -10 22
-10 49 0 39 -4 51 -17 54 -10 3 2 5 27 5 25 0 37 -2 28 -5z m113 -15 l0 -23
16 23 c8 12 22 22 31 22 12 0 9 -7 -11 -28 l-27 -28 27 -27 c16 -15 22 -27 14
-27 -7 0 -21 10 -32 23 l-18 22 -1 -22 c0 -13 -4 -23 -10 -23 -5 0 -10 25 -10
55 0 30 5 55 10 55 6 0 10 -10 11 -22z m236 -4 c15 -24 15 -29 2 -53 -11 -20
-22 -26 -49 -26 -27 0 -38 6 -49 26 -13 24 -13 29 2 53 12 18 26 26 47 26 21
0 35 -8 47 -26z"/>
<path d="M2510 4135 c-19 -23 -8 -50 22 -53 19 -2 28 2 33 18 12 39 -29 66
-55 35z"/>
<path d="M3030 4090 c-11 -11 -20 -33 -20 -50 0 -17 9 -39 20 -50 11 -11 33
-20 50 -20 17 0 39 9 50 20 11 11 20 33 20 50 0 17 -9 39 -20 50 -11 11 -33
20 -50 20 -17 0 -39 -9 -50 -20z"/>
<path d="M1720 3690 c-11 -11 -20 -33 -20 -50 0 -17 9 -39 20 -50 11 -11 33
-20 50 -20 17 0 39 9 50 20 11 11 20 33 20 50 0 17 -9 39 -20 50 -11 11 -33
20 -50 20 -17 0 -39 -9 -50 -20z"/>
<path d="M2091 3573 c-21 -20 -46 -71 -86 -173 -43 -111 -65 -154 -94 -185
-45 -47 -61 -75 -61 -107 0 -21 10 -27 103 -54 109 -33 124 -47 88 -83 -18
-18 -33 -21 -111 -21 l-90 0 0 -200 0 -200 90 0 90 0 0 49 c0 62 20 85 64 77
64 -13 621 -18 740 -7 87 8 123 8 133 0 8 -7 13 -33 13 -65 l0 -54 90 0 90 0
0 200 0 200 -88 0 c-72 0 -92 3 -104 18 -38 43 -32 49 72 81 54 17 103 31 109
31 32 0 -6 95 -58 144 -21 20 -48 75 -92 183 -41 104 -69 160 -86 173 -25 19
-42 20 -404 20 l-379 0 -29 -27z m728 -572 c8 -14 2 -36 -28 -97 -21 -44 -45
-85 -53 -91 -54 -45 -296 -60 -418 -26 -61 17 -67 21 -92 68 -15 28 -35 69
-44 92 -29 75 -36 73 317 73 291 0 309 -1 318 -19z"/>
<path d="M2270 2945 c0 -3 9 -23 20 -44 18 -36 23 -39 86 -51 73 -14 241 -9
286 9 16 6 36 27 48 51 l20 40 -230 0 c-126 0 -230 -2 -230 -5z"/>
<path d="M1827 3343 c-15 -14 -6 -29 23 -40 26 -10 32 -9 41 8 5 11 7 24 4 29
-7 11 -58 14 -68 3z"/>
<path d="M3111 3341 c-8 -5 -11 -16 -6 -30 6 -19 9 -20 38 -8 18 8 32 20 32
28 0 16 -43 23 -64 10z"/>
<path d="M1190 2054 l0 -96 76 4 c65 3 79 7 95 27 19 23 25 83 13 116 -11 27
-60 45 -124 45 l-60 0 0 -96z"/>
<path d="M1980 2059 l0 -91 70 4 c87 5 115 26 115 89 0 63 -36 89 -121 89
l-64 0 0 -91z"/>
<path d="M2855 1473 c-4 -10 -20 -53 -36 -95 l-28 -78 69 0 c39 0 70 4 70 9 0
10 -59 173 -64 179 -2 1 -7 -5 -11 -15z"/>
<path d="M2267 800 c-3 -13 0 -20 9 -20 15 0 19 26 5 34 -5 3 -11 -3 -14 -14z"/>
<path d="M2540 820 c0 -19 20 -27 33 -13 8 7 -11 33 -24 33 -5 0 -9 -9 -9 -20z"/>
<path d="M2706 805 c-9 -23 -8 -25 9 -25 17 0 19 9 6 28 -7 11 -10 10 -15 -3z"/>
<path d="M2867 834 c-14 -15 -6 -34 14 -34 14 0 19 5 17 17 -3 18 -20 27 -31
17z"/>
<path d="M3036 827 c-28 -20 -18 -61 16 -65 36 -4 53 26 32 56 -18 26 -24 27
-48 9z"/>
<path d="M3447 800 c-3 -13 0 -20 9 -20 15 0 19 26 5 34 -5 3 -11 -3 -14 -14z"/>
<path d="M3646 614 c-29 -28 -15 -64 24 -64 25 0 40 15 40 40 0 11 -29 40 -40
40 -5 0 -16 -7 -24 -16z"/>
</g>
</svg>
